<svg width="154" height="42" viewBox="0 0 154 42" fill="none" xmlns="http://www.w3.org/2000/svg">
<path d="M34.8573 2.47708L27.7239 24.0837H22.3037L17.5065 9.45294L12.5536 24.0837H7.16459L0 2.47708H5.23326L10.155 17.6635L15.2948 2.47708H19.9674L24.9515 17.7869L30.029 2.47708H34.8573Z" fill="#FFD22E"/>
<path d="M52.501 15.8424C52.501 15.9041 52.4698 16.3362 52.4075 17.1387H39.7293C39.9576 18.1676 40.4977 18.9805 41.349 19.5772C42.2004 20.174 43.2597 20.4724 44.5265 20.4724C45.3987 20.4724 46.1671 20.3489 46.8316 20.102C47.5168 19.8344 48.1501 19.4229 48.7317 18.8673L51.3172 21.6453C49.739 23.4356 47.4338 24.3307 44.4017 24.3307C42.5119 24.3307 40.8401 23.9706 39.3866 23.2504C37.9328 22.5095 36.8114 21.491 36.0224 20.1945C35.2331 18.8981 34.8386 17.4268 34.8386 15.7806C34.8386 14.155 35.2228 12.694 35.9912 11.3975C36.7802 10.0806 37.8498 9.06198 39.1998 8.34174C40.5704 7.60096 42.0965 7.23056 43.7786 7.23056C45.4193 7.23056 46.9043 7.58037 48.2334 8.28C49.5625 8.97968 50.6006 9.98798 51.3484 11.305C52.1168 12.6013 52.501 14.1138 52.501 15.8424ZM43.8098 10.8728C42.7093 10.8728 41.785 11.1815 41.0375 11.7988C40.29 12.4161 39.8332 13.2598 39.6669 14.3299H47.9219C47.7556 13.2804 47.2988 12.447 46.5513 11.8297C45.8035 11.1918 44.8898 10.8728 43.8098 10.8728Z" fill="#FFD22E"/>
<path d="M65.6419 7.23057C67.1996 7.23057 68.6116 7.59065 69.8783 8.31089C71.1659 9.01053 72.1732 10.0086 72.9001 11.305C73.6267 12.5808 73.9903 14.0727 73.9903 15.7806C73.9903 17.4886 73.6267 18.9908 72.9001 20.2872C72.1732 21.563 71.1659 22.561 69.8783 23.2812C68.6116 23.9808 67.1996 24.3307 65.6419 24.3307C63.3367 24.3307 61.582 23.6105 60.3776 22.17V24.0837H55.7361V1.18069H60.5956V9.2369C61.8208 7.89932 63.5029 7.23057 65.6419 7.23057ZM64.8008 20.3797C66.047 20.3797 67.0645 19.9682 67.8535 19.1451C68.6637 18.3014 69.0685 17.1799 69.0685 15.7806C69.0685 14.3813 68.6637 13.2701 67.8535 12.447C67.0645 11.6033 66.047 11.1815 64.8008 11.1815C63.555 11.1815 62.5269 11.6033 61.717 12.447C60.928 13.2701 60.5332 14.3813 60.5332 15.7806C60.5332 17.1799 60.928 18.3014 61.717 19.1451C62.5269 19.9682 63.555 20.3797 64.8008 20.3797Z" fill="#FFD22E"/>
<path d="M97.5847 2.47708V24.0837H92.538V15.225H82.6322V24.0837H77.5859V2.47708H82.6322V10.9963H92.538V2.47708H97.5847Z" fill="#FFD22E"/>
<path d="M118.817 15.8424C118.817 15.9041 118.786 16.3362 118.724 17.1387H106.045C106.274 18.1676 106.814 18.9805 107.665 19.5772C108.517 20.174 109.576 20.4724 110.843 20.4724C111.715 20.4724 112.483 20.3489 113.148 20.102C113.833 19.8344 114.467 19.4229 115.048 18.8673L117.633 21.6453C116.055 23.4356 113.75 24.3307 110.718 24.3307C108.828 24.3307 107.157 23.9706 105.703 23.2504C104.249 22.5095 103.128 21.491 102.338 20.1945C101.55 18.8981 101.155 17.4268 101.155 15.7806C101.155 14.155 101.539 12.694 102.308 11.3975C103.097 10.0806 104.166 9.06198 105.516 8.34174C106.886 7.60096 108.413 7.23056 110.095 7.23056C111.736 7.23056 113.22 7.58037 114.549 8.28C115.879 8.97968 116.917 9.98798 117.665 11.305C118.433 12.6013 118.817 14.1138 118.817 15.8424ZM110.126 10.8728C109.026 10.8728 108.101 11.1815 107.354 11.7988C106.606 12.4161 106.149 13.2598 105.983 14.3299H114.238C114.072 13.2804 113.615 12.447 112.867 11.8297C112.12 11.1918 111.206 10.8728 110.126 10.8728Z" fill="#FFD22E"/>
<path d="M126.694 9.66903C127.275 8.86649 128.054 8.25944 129.03 7.8479C130.027 7.43633 131.169 7.23056 132.457 7.23056V11.6754C131.917 11.6342 131.553 11.6136 131.366 11.6136C129.975 11.6136 128.885 12.0046 128.096 12.7865C127.306 13.5479 126.912 14.7003 126.912 16.2436V24.0837H122.052V7.4775H126.694V9.66903Z" fill="#FFD22E"/>
<path d="M143.168 24.3307C141.403 24.3307 139.815 23.9706 138.402 23.2504C137.011 22.5095 135.921 21.491 135.132 20.1945C134.343 18.8981 133.948 17.4268 133.948 15.7806C133.948 14.1344 134.343 12.6631 135.132 11.3667C135.921 10.0703 137.011 9.06198 138.402 8.34174C139.815 7.60096 141.403 7.23056 143.168 7.23056C144.933 7.23056 146.512 7.60096 147.903 8.34174C149.295 9.06198 150.385 10.0703 151.174 11.3667C151.963 12.6631 152.358 14.1344 152.358 15.7806C152.358 17.4268 151.963 18.8981 151.174 20.1945C150.385 21.491 149.295 22.5095 147.903 23.2504C146.512 23.9706 144.933 24.3307 143.168 24.3307ZM143.168 20.3797C144.414 20.3797 145.432 19.9682 146.221 19.1451C147.031 18.3014 147.436 17.1799 147.436 15.7806C147.436 14.3813 147.031 13.2701 146.221 12.447C145.432 11.6033 144.414 11.1815 143.168 11.1815C141.922 11.1815 140.894 11.6033 140.085 12.447C139.275 13.2701 138.87 14.3813 138.87 15.7806C138.87 17.1799 139.275 18.3014 140.085 19.1451C140.894 19.9682 141.922 20.3797 143.168 20.3797Z" fill="#FFD22E"/>
<path d="M98.4257 41.4234C97.4879 41.4234 96.5802 41.2823 95.702 41C94.836 40.7063 94.1534 40.3298 93.655 39.8712L94.3137 38.4954C94.7883 38.9188 95.3936 39.2656 96.1292 39.5362C96.877 39.795 97.6423 39.9244 98.4257 39.9244C99.4579 39.9244 100.229 39.7536 100.74 39.4126C101.25 39.06 101.505 38.5955 101.505 38.0192C101.505 37.5961 101.363 37.2549 101.078 36.9964C100.805 36.7259 100.461 36.5202 100.045 36.3791C99.6419 36.2379 99.0665 36.0792 98.3187 35.9029C97.3813 35.6793 96.6219 35.456 96.0403 35.2324C95.4706 35.0091 94.9782 34.6682 94.5628 34.2096C94.1593 33.7393 93.9578 33.1102 93.9578 32.3221C93.9578 31.6636 94.1297 31.0698 94.4739 30.5408C94.8301 30.0116 95.364 29.5883 96.0759 29.2708C96.7879 28.9533 97.6719 28.7946 98.7282 28.7946C99.4638 28.7946 100.188 28.8887 100.9 29.0768C101.612 29.265 102.223 29.5354 102.733 29.8882L102.146 31.2992C101.624 30.97 101.066 30.723 100.473 30.5584C99.8792 30.382 99.2979 30.2938 98.7282 30.2938C97.7197 30.2938 96.96 30.4761 96.4498 30.8406C95.9515 31.205 95.702 31.6754 95.702 32.2516C95.702 32.675 95.8445 33.0219 96.1292 33.2924C96.4143 33.5509 96.7642 33.7569 97.1795 33.9097C97.6068 34.0509 98.1824 34.2037 98.9062 34.3683C99.8436 34.5916 100.597 34.8152 101.167 35.0385C101.737 35.2617 102.223 35.603 102.627 36.0616C103.042 36.5202 103.249 37.1375 103.249 37.9136C103.249 38.5603 103.072 39.1542 102.715 39.6949C102.359 40.2239 101.82 40.6473 101.096 40.9648C100.372 41.2705 99.4816 41.4234 98.4257 41.4234Z" fill="white"/>
<path d="M109.713 41.3882C108.751 41.3882 107.891 41.1825 107.132 40.7709C106.384 40.3592 105.797 39.795 105.369 39.0776C104.942 38.3484 104.729 37.5254 104.729 36.6082C104.729 35.691 104.942 34.8739 105.369 34.1565C105.797 33.4276 106.384 32.8631 107.132 32.4632C107.891 32.0518 108.751 31.8459 109.713 31.8459C110.567 31.8459 111.327 32.0166 111.991 32.3576C112.668 32.6985 113.19 33.1923 113.558 33.839L112.258 34.6682C111.961 34.2213 111.594 33.8863 111.154 33.6627C110.715 33.4394 110.229 33.3276 109.695 33.3276C109.078 33.3276 108.52 33.4629 108.022 33.7334C107.535 34.0036 107.149 34.3918 106.865 34.8973C106.592 35.3911 106.455 35.9615 106.455 36.6082C106.455 37.2666 106.592 37.8488 106.865 38.3543C107.149 38.8484 107.535 39.2304 108.022 39.501C108.52 39.7715 109.078 39.9065 109.695 39.9065C110.229 39.9065 110.715 39.795 111.154 39.5714C111.594 39.3481 111.961 39.013 112.258 38.5662L113.558 39.3774C113.19 40.0241 112.668 40.5238 111.991 40.8768C111.327 41.2177 110.567 41.3882 109.713 41.3882Z" fill="white"/>
<path d="M120.686 31.8459C121.884 31.8459 122.834 32.193 123.534 32.8866C124.246 33.5688 124.602 34.574 124.602 35.9029V41.2823H122.893V36.0968C122.893 35.1913 122.673 34.5095 122.234 34.0509C121.795 33.5923 121.166 33.3628 120.347 33.3628C119.422 33.3628 118.692 33.6333 118.158 34.1741C117.624 34.7034 117.357 35.4677 117.357 36.4671V41.2823H115.648V28.1949H117.357V33.2572C117.713 32.8103 118.176 32.4632 118.745 32.2164C119.327 31.9694 119.974 31.8459 120.686 31.8459Z" fill="white"/>
<path d="M131.857 41.3882C130.92 41.3882 130.077 41.1825 129.329 40.7709C128.582 40.3592 127.994 39.795 127.567 39.0776C127.152 38.3484 126.944 37.5254 126.944 36.6082C126.944 35.691 127.152 34.8739 127.567 34.1565C127.994 33.4276 128.582 32.8631 129.329 32.4632C130.077 32.0518 130.92 31.8459 131.857 31.8459C132.794 31.8459 133.631 32.0518 134.367 32.4632C135.114 32.8631 135.696 33.4276 136.111 34.1565C136.538 34.8739 136.752 35.691 136.752 36.6082C136.752 37.5254 136.538 38.3484 136.111 39.0776C135.696 39.795 135.114 40.3592 134.367 40.7709C133.631 41.1825 132.794 41.3882 131.857 41.3882ZM131.857 39.9065C132.462 39.9065 133.002 39.7715 133.477 39.501C133.963 39.2187 134.343 38.8305 134.616 38.3367C134.889 37.8312 135.025 37.2549 135.025 36.6082C135.025 35.9615 134.889 35.3911 134.616 34.8973C134.343 34.3918 133.963 34.0036 133.477 33.7334C133.002 33.4629 132.462 33.3276 131.857 33.3276C131.252 33.3276 130.706 33.4629 130.219 33.7334C129.745 34.0036 129.365 34.3918 129.08 34.8973C128.807 35.3911 128.671 35.9615 128.671 36.6082C128.671 37.2549 128.807 37.8312 129.08 38.3367C129.365 38.8305 129.745 39.2187 130.219 39.501C130.706 39.7715 131.252 39.9065 131.857 39.9065Z" fill="white"/>
<path d="M143.156 41.3882C142.218 41.3882 141.376 41.1825 140.628 40.7709C139.881 40.3592 139.293 39.795 138.866 39.0776C138.451 38.3484 138.243 37.5254 138.243 36.6082C138.243 35.691 138.451 34.8739 138.866 34.1565C139.293 33.4276 139.881 32.8631 140.628 32.4632C141.376 32.0518 142.218 31.8459 143.156 31.8459C144.093 31.8459 144.93 32.0518 145.666 32.4632C146.413 32.8631 146.995 33.4276 147.41 34.1565C147.838 34.8739 148.051 35.691 148.051 36.6082C148.051 37.5254 147.838 38.3484 147.41 39.0776C146.995 39.795 146.413 40.3592 145.666 40.7709C144.93 41.1825 144.093 41.3882 143.156 41.3882ZM143.156 39.9065C143.761 39.9065 144.301 39.7715 144.776 39.501C145.262 39.2187 145.642 38.8305 145.915 38.3367C146.188 37.8312 146.324 37.2549 146.324 36.6082C146.324 35.9615 146.188 35.3911 145.915 34.8973C145.642 34.3918 145.262 34.0036 144.776 33.7334C144.301 33.4629 143.761 33.3276 143.156 33.3276C142.551 33.3276 142.005 33.4629 141.518 33.7334C141.044 34.0036 140.664 34.3918 140.379 34.8973C140.106 35.3911 139.97 35.9615 139.97 36.6082C139.97 37.2549 140.106 37.8312 140.379 38.3367C140.664 38.8305 141.044 39.2187 141.518 39.501C142.005 39.7715 142.551 39.9065 143.156 39.9065Z" fill="white"/>
<path d="M150.414 28.1949H152.123V41.2823H150.414V28.1949Z" fill="white"/>
</svg>
