<svg width="209" height="56" viewBox="0 0 209 56" fill="none" xmlns="http://www.w3.org/2000/svg">
<path d="M47.4825 3.30273L37.7654 32.1116H30.382L23.8473 12.6039L17.1005 32.1116H9.75958L0 3.30273H7.12873L13.8332 23.5513L20.8346 3.30273H27.1996L33.9888 23.7159L40.9054 3.30273H47.4825Z" fill="#FFD22E"/>
<path d="M71.5167 21.123C71.5167 21.2053 71.4742 21.7815 71.3892 22.8515H54.1191C54.4301 24.2234 55.1658 25.3072 56.3255 26.1028C57.4852 26.8985 58.9282 27.2964 60.6538 27.2964C61.8419 27.2964 62.8886 27.1317 63.7939 26.8025C64.7271 26.4458 65.5899 25.8971 66.3822 25.1563L69.9042 28.8602C67.7543 31.2473 64.6142 32.4408 60.4839 32.4408C57.9096 32.4408 55.6322 31.9606 53.6523 31.0003C51.6719 30.0126 50.1443 28.6545 49.0696 26.9259C47.9944 25.1974 47.457 23.2357 47.457 21.0407C47.457 18.8732 47.9804 16.9252 49.0271 15.1966C50.1018 13.4406 51.5589 12.0825 53.3978 11.1222C55.2648 10.1345 57.3438 9.64062 59.6351 9.64062C61.87 9.64062 63.8928 10.107 65.7033 11.0399C67.5138 11.9728 68.928 13.3172 69.9466 15.0732C70.9933 16.8017 71.5167 18.8183 71.5167 21.123ZM59.6776 14.497C58.1785 14.497 56.9194 14.9085 55.9011 15.7316C54.8829 16.5547 54.2606 17.6797 54.0342 19.1064H65.279C65.0525 17.7071 64.4302 16.5959 63.412 15.7728C62.3933 14.9222 61.1487 14.497 59.6776 14.497Z" fill="#FFD22E"/>
<path d="M89.417 9.64071C91.5389 9.64071 93.4623 10.1208 95.1879 11.0812C96.9419 12.014 98.314 13.3447 99.3042 15.0733C100.294 16.7743 100.789 18.7635 100.789 21.0408C100.789 23.3181 100.294 25.321 99.3042 27.0495C98.314 28.7506 96.9419 30.0813 95.1879 31.0416C93.4623 31.9744 91.5389 32.4409 89.417 32.4409C86.2769 32.4409 83.8866 31.4806 82.246 29.56V32.1116H75.9233V1.57422H82.5429V12.3158C84.212 10.5324 86.5033 9.64071 89.417 9.64071ZM88.2713 27.173C89.9688 27.173 91.3549 26.6242 92.4297 25.5267C93.5333 24.4018 94.0847 22.9065 94.0847 21.0408C94.0847 19.1751 93.5333 17.6935 92.4297 16.596C91.3549 15.4711 89.9688 14.9086 88.2713 14.9086C86.5743 14.9086 85.1737 15.4711 84.0705 16.596C82.9958 17.6935 82.458 19.1751 82.458 21.0408C82.458 22.9065 82.9958 24.4018 84.0705 25.5267C85.1737 26.6242 86.5743 27.173 88.2713 27.173Z" fill="#FFD22E"/>
<path d="M132.929 3.30273V32.1116H126.055V20.3H112.561V32.1116H105.687V3.30273H112.561V14.6617H126.055V3.30273H132.929Z" fill="#FFD22E"/>
<path d="M161.852 21.123C161.852 21.2053 161.81 21.7815 161.725 22.8515H144.455C144.766 24.2234 145.501 25.3072 146.661 26.1028C147.821 26.8985 149.264 27.2964 150.989 27.2964C152.177 27.2964 153.224 27.1317 154.129 26.8025C155.063 26.4458 155.926 25.8971 156.718 25.1563L160.24 28.8602C158.09 31.2473 154.95 32.4408 150.82 32.4408C148.246 32.4408 145.968 31.9606 143.988 31.0003C142.008 30.0126 140.48 28.6545 139.405 26.9259C138.33 25.1974 137.793 23.2357 137.793 21.0407C137.793 18.8732 138.316 16.9252 139.363 15.1966C140.438 13.4406 141.895 12.0825 143.733 11.1222C145.6 10.1345 147.68 9.64062 149.971 9.64062C152.206 9.64062 154.228 10.107 156.039 11.0399C157.849 11.9728 159.264 13.3172 160.282 15.0732C161.329 16.8017 161.852 18.8183 161.852 21.123ZM150.014 14.497C148.514 14.497 147.255 14.9085 146.237 15.7316C145.218 16.5547 144.596 17.6797 144.37 19.1064H155.614C155.388 17.7071 154.766 16.5959 153.748 15.7728C152.729 14.9222 151.485 14.497 150.014 14.497Z" fill="#FFD22E"/>
<path d="M172.582 12.8919C173.374 11.8219 174.435 11.0125 175.764 10.4637C177.122 9.91498 178.678 9.64062 180.432 9.64062V15.567C179.697 15.5121 179.201 15.4847 178.947 15.4847C177.051 15.4847 175.566 16.006 174.492 17.0486C173.416 18.0638 172.879 19.6003 172.879 21.658V32.1115H166.26V9.96987H172.582V12.8919Z" fill="#FFD22E"/>
<path d="M195.024 32.4408C192.619 32.4408 190.455 31.9606 188.532 31.0003C186.636 30.0126 185.151 28.6545 184.076 26.9259C183.001 25.1974 182.463 23.2357 182.463 21.0407C182.463 18.8458 183.001 16.884 184.076 15.1555C185.151 13.4269 186.636 12.0825 188.532 11.1222C190.455 10.1345 192.619 9.64062 195.024 9.64062C197.428 9.64062 199.578 10.1345 201.473 11.1222C203.369 12.0825 204.854 13.4269 205.929 15.1555C207.004 16.884 207.541 18.8458 207.541 21.0407C207.541 23.2357 207.004 25.1974 205.929 26.9259C204.854 28.6545 203.369 30.0126 201.473 31.0003C199.578 31.9606 197.428 32.4408 195.024 32.4408ZM195.024 27.1729C196.721 27.1729 198.107 26.6242 199.182 25.5266C200.285 24.4017 200.837 22.9064 200.837 21.0407C200.837 19.175 200.285 17.6934 199.182 16.5959C198.107 15.471 196.721 14.9085 195.024 14.9085C193.326 14.9085 191.926 15.471 190.823 16.5959C189.72 17.6934 189.168 19.175 189.168 21.0407C189.168 22.9064 189.72 24.4017 190.823 25.5266C191.926 26.6242 193.326 27.1729 195.024 27.1729Z" fill="#FFD22E"/>
<path d="M134.075 55.231C132.798 55.231 131.561 55.0428 130.365 54.6665C129.185 54.2749 128.255 53.7729 127.577 53.1615L128.474 51.3271C129.12 51.8916 129.945 52.354 130.947 52.7147C131.966 53.0598 133.008 53.2323 134.075 53.2323C135.481 53.2323 136.532 53.0046 137.227 52.55C137.922 52.0798 138.27 51.4605 138.27 50.6921C138.27 50.128 138.076 49.673 137.688 49.3283C137.316 48.9676 136.847 48.6934 136.282 48.5052C135.732 48.3171 134.948 48.1054 133.93 47.8703C132.653 47.5722 131.618 47.2745 130.826 46.9763C130.05 46.6786 129.379 46.2241 128.813 45.6126C128.264 44.9855 127.989 44.1467 127.989 43.0959C127.989 42.218 128.223 41.4262 128.692 40.7208C129.177 40.0153 129.905 39.4509 130.874 39.0276C131.844 38.6042 133.049 38.3926 134.487 38.3926C135.489 38.3926 136.476 38.518 137.446 38.7688C138.415 39.0197 139.248 39.3803 139.943 39.8507L139.143 41.7321C138.432 41.2932 137.672 40.9638 136.864 40.7443C136.055 40.5092 135.263 40.3916 134.487 40.3916C133.114 40.3916 132.079 40.6346 131.384 41.1206C130.705 41.6065 130.365 42.2336 130.365 43.002C130.365 43.5665 130.559 44.0289 130.947 44.3896C131.335 44.7343 131.812 45.0089 132.378 45.2128C132.96 45.4009 133.744 45.6048 134.73 45.8242C136.007 46.1219 137.033 46.4201 137.809 46.7178C138.585 47.0155 139.248 47.4705 139.798 48.0819C140.363 48.6934 140.646 49.5165 140.646 50.5513C140.646 51.4135 140.404 52.2053 139.919 52.9263C139.434 53.6317 138.698 54.1962 137.712 54.6195C136.726 55.0272 135.514 55.231 134.075 55.231Z" fill="black"/>
<path d="M149.45 55.184C148.141 55.184 146.969 54.9098 145.934 54.3609C144.916 53.812 144.116 53.0598 143.534 52.1032C142.952 51.131 142.661 50.0337 142.661 48.8108C142.661 47.5878 142.952 46.4983 143.534 45.5418C144.116 44.57 144.916 43.8173 145.934 43.2841C146.969 42.7356 148.141 42.4609 149.45 42.4609C150.614 42.4609 151.649 42.6886 152.554 43.1432C153.475 43.5978 154.186 44.2562 154.688 45.1185L152.917 46.2241C152.513 45.6282 152.012 45.1815 151.414 44.8833C150.816 44.5856 150.153 44.4366 149.426 44.4366C148.585 44.4366 147.825 44.6169 147.147 44.9776C146.484 45.3379 145.958 45.8555 145.571 46.5296C145.199 47.188 145.013 47.9485 145.013 48.8108C145.013 49.6886 145.199 50.4648 145.571 51.1389C145.958 51.7977 146.484 52.307 147.147 52.6678C147.825 53.0285 148.585 53.2084 149.426 53.2084C150.153 53.2084 150.816 53.0598 151.414 52.7616C152.012 52.4639 152.513 52.0172 152.917 51.4213L154.688 52.503C154.186 53.3653 153.475 54.0315 152.554 54.5022C151.649 54.9568 150.614 55.184 149.45 55.184Z" fill="black"/>
<path d="M164.398 42.4612C166.03 42.4612 167.324 42.924 168.277 43.8488C169.247 44.7584 169.732 46.0987 169.732 47.8705V55.043H167.405V48.1291C167.405 46.9218 167.105 46.0126 166.507 45.4012C165.909 44.7897 165.052 44.4838 163.937 44.4838C162.676 44.4838 161.682 44.8445 160.955 45.5655C160.227 46.2712 159.864 47.2904 159.864 48.6228V55.043H157.536V37.5933H159.864V44.3429C160.349 43.7471 160.979 43.2843 161.755 42.9553C162.547 42.6259 163.428 42.4612 164.398 42.4612Z" fill="black"/>
<path d="M179.615 55.184C178.338 55.184 177.19 54.9098 176.172 54.3609C175.153 53.812 174.354 53.0598 173.772 52.1032C173.206 51.131 172.923 50.0337 172.923 48.8108C172.923 47.5878 173.206 46.4983 173.772 45.5418C174.354 44.57 175.153 43.8173 176.172 43.2841C177.19 42.7356 178.338 42.4609 179.615 42.4609C180.892 42.4609 182.032 42.7356 183.034 43.2841C184.053 43.8173 184.844 44.57 185.41 45.5418C185.992 46.4983 186.283 47.5878 186.283 48.8108C186.283 50.0337 185.992 51.131 185.41 52.1032C184.844 53.0598 184.053 53.812 183.034 54.3609C182.032 54.9098 180.892 55.184 179.615 55.184ZM179.615 53.2084C180.44 53.2084 181.175 53.0285 181.822 52.6678C182.485 52.2914 183.002 51.7738 183.373 51.1154C183.745 50.4413 183.931 49.673 183.931 48.8108C183.931 47.9485 183.745 47.188 183.373 46.5296C183.002 45.8555 182.485 45.3379 181.822 44.9776C181.175 44.6169 180.44 44.4366 179.615 44.4366C178.791 44.4366 178.047 44.6169 177.385 44.9776C176.738 45.3379 176.221 45.8555 175.833 46.5296C175.461 47.188 175.275 47.9485 175.275 48.8108C175.275 49.673 175.461 50.4413 175.833 51.1154C176.221 51.7738 176.738 52.2914 177.385 52.6678C178.047 53.0285 178.791 53.2084 179.615 53.2084Z" fill="black"/>
<path d="M195.007 55.184C193.729 55.184 192.582 54.9098 191.563 54.3609C190.545 53.812 189.745 53.0598 189.163 52.1032C188.597 51.131 188.314 50.0337 188.314 48.8108C188.314 47.5878 188.597 46.4983 189.163 45.5418C189.745 44.57 190.545 43.8173 191.563 43.2841C192.582 42.7356 193.729 42.4609 195.007 42.4609C196.284 42.4609 197.423 42.7356 198.425 43.2841C199.444 43.8173 200.236 44.57 200.802 45.5418C201.384 46.4983 201.675 47.5878 201.675 48.8108C201.675 50.0337 201.384 51.131 200.802 52.1032C200.236 53.0598 199.444 53.812 198.425 54.3609C197.423 54.9098 196.284 55.184 195.007 55.184ZM195.007 53.2084C195.831 53.2084 196.567 53.0285 197.213 52.6678C197.876 52.2914 198.393 51.7738 198.765 51.1154C199.137 50.4413 199.323 49.673 199.323 48.8108C199.323 47.9485 199.137 47.188 198.765 46.5296C198.393 45.8555 197.876 45.3379 197.213 44.9776C196.567 44.6169 195.831 44.4366 195.007 44.4366C194.182 44.4366 193.438 44.6169 192.776 44.9776C192.129 45.3379 191.612 45.8555 191.224 46.5296C190.852 47.188 190.666 47.9485 190.666 48.8108C190.666 49.673 190.852 50.4413 191.224 51.1154C191.612 51.7738 192.129 52.2914 192.776 52.6678C193.438 53.0285 194.182 53.2084 195.007 53.2084Z" fill="black"/>
<path d="M204.894 37.5933H207.222V55.043H204.894V37.5933Z" fill="black"/>
</svg>
